<?xml version="1.0" standalone="no"?>
<!DOCTYPE svg PUBLIC "-//W3C//DTD SVG 20010904//EN"
 "http://www.w3.org/TR/2001/REC-SVG-20010904/DTD/svg10.dtd">
<svg version="1.0" xmlns="http://www.w3.org/2000/svg"
 width="2048.000000pt" height="2048.000000pt" viewBox="0 0 2048.000000 2048.000000"
 preserveAspectRatio="xMidYMid meet">
<metadata>
Created by potrace 1.16, written by Peter Selinger 2001-2019
</metadata>
<g transform="translate(0.000000,2048.000000) scale(0.100000,-0.100000)"
fill="#544B43" stroke="none">
<path d="M8032 19251 c8 -22 10394 -18010 10398 -18010 3 0 262 444 575 986
314 543 707 1224 874 1513 435 749 516 919 573 1189 25 123 36 502 19 649 -35
284 -140 593 -279 822 -35 57 -6406 11128 -6727 11688 -69 121 -153 258 -186
305 -346 486 -899 801 -1504 857 -137 12 -3748 14 -3743 1z"/>
<path d="M4012 12318 c-1277 -2212 -2320 -4023 -2319 -4025 2 -2 2094 -2 4649
-1 l4646 3 -2322 4022 c-1276 2213 -2323 4023 -2326 4023 -3 0 -1050 -1810
-2328 -4022z"/>
<path d="M5 5343 c3 -10 390 -682 859 -1493 469 -811 870 -1506 891 -1545 335
-611 951 -1013 1645 -1075 156 -13 11660 -14 11660 0 0 5 -498 873 -1107 1927
-609 1055 -1143 1981 -1187 2058 l-81 140 -6344 3 c-6039 2 -6343 1 -6336 -15z"/>
</g>
</svg>
