<svg version="1.1" id="Layer_1" xmlns="http://www.w3.org/2000/svg" xmlns:xlink="http://www.w3.org/1999/xlink" x="0px" y="0px"
	 width="100%" viewBox="0 0 512 512" enable-background="new 0 0 512 512" xml:space="preserve">
<path fill="#544B43" opacity="1.000000" stroke="none" 
	d="
M1.000000,391.000000 
	C1.000000,300.645782 1.000000,210.291550 1.421049,119.462158 
	C2.222681,118.565628 2.810649,118.204575 2.953313,117.714020 
	C5.986578,107.283806 8.142377,96.510574 12.130529,86.463684 
	C21.160141,63.716431 36.279324,45.229259 55.428455,30.223427 
	C70.864754,18.127081 88.193291,9.486399 107.421371,5.013494 
	C113.591568,3.578162 119.805878,2.332459 126.000000,1.000000 
	C213.020889,1.000000 300.041779,1.000000 387.680786,1.395738 
	C402.153870,2.625837 415.230499,6.690469 427.851013,12.060484 
	C450.042297,21.502874 468.485199,36.063335 483.383911,54.959644 
	C495.673553,70.546867 504.371765,88.011803 508.981323,107.394058 
	C510.449066,113.565559 511.667480,119.796341 513.000000,126.000000 
	C513.000000,213.020889 513.000000,300.041779 512.604248,387.680786 
	C511.374023,402.153839 507.309570,415.230469 501.939514,427.851013 
	C492.497070,450.042267 477.936737,468.485260 459.040405,483.383911 
	C443.453186,495.673553 425.988220,504.371796 406.605927,508.981323 
	C400.434448,510.449066 394.203644,511.667511 388.000000,513.000000 
	C300.979095,513.000000 213.958206,513.000000 126.319199,512.604248 
	C121.797806,511.796997 117.807762,511.769806 114.005501,510.911072 
	C90.905762,505.694153 69.653625,496.182770 51.586910,480.850586 
	C30.463558,462.924500 15.073537,440.776062 7.020454,413.984894 
	C4.742007,406.404907 2.992240,398.666016 1.000000,391.000000 
M205.500000,467.000000 
	C262.321533,467.000000 319.144196,467.174957 375.963348,466.806763 
	C384.254089,466.753021 392.809540,464.998199 400.753845,462.485535 
	C420.038300,456.386169 435.606140,444.589355 447.885406,428.565613 
	C460.147430,412.564331 466.825470,394.313690 466.892303,374.235840 
	C467.155182,295.253204 467.129730,216.268616 466.804016,137.286423 
	C466.770599,129.181549 464.815491,120.835083 462.359924,113.039230 
	C456.383545,94.065598 444.782043,78.828598 429.128448,66.604553 
	C413.055420,54.052986 394.707123,47.212223 374.485718,47.130272 
	C295.670105,46.810848 216.851929,46.871464 138.036316,47.189980 
	C129.748886,47.223469 121.190590,49.001713 113.246277,51.514374 
	C93.961845,57.613720 78.393990,69.410500 66.114746,85.434280 
	C53.852764,101.435539 47.175613,119.686058 47.107712,139.763962 
	C46.843433,217.913437 46.866280,296.064880 47.185894,374.213959 
	C47.221867,383.009277 48.795700,392.116333 51.438271,400.518402 
	C57.385265,419.426910 68.833405,434.784058 84.497612,447.067505 
	C101.136475,460.115234 120.037788,466.639923 141.014160,466.934570 
	C162.172241,467.231781 183.337753,467.000000 205.500000,467.000000 
z"/>
<path fill="rgba(255,255,255,0)" opacity="1.000000" stroke="none" 
	d="
M513.000000,125.531342 
	C511.667480,119.796341 510.449066,113.565559 508.981323,107.394058 
	C504.371765,88.011803 495.673553,70.546867 483.383911,54.959644 
	C468.485199,36.063335 450.042297,21.502874 427.851013,12.060484 
	C415.230499,6.690469 402.153870,2.625837 388.149475,1.395738 
	C429.593628,1.000000 471.187256,1.000000 513.000000,1.000000 
	C513.000000,42.353970 513.000000,83.708328 513.000000,125.531342 
z"/>
<path fill="rgba(255,255,255,0)" opacity="1.000000" stroke="none" 
	d="
M388.468658,513.000000 
	C394.203644,511.667511 400.434448,510.449066 406.605927,508.981323 
	C425.988220,504.371796 443.453186,495.673553 459.040405,483.383911 
	C477.936737,468.485260 492.497070,450.042267 501.939514,427.851013 
	C507.309570,415.230469 511.374023,402.153839 512.604248,388.149475 
	C513.000000,429.593628 513.000000,471.187256 513.000000,513.000000 
	C471.646027,513.000000 430.291687,513.000000 388.468658,513.000000 
z"/>
<path fill="rgba(255,255,255,0)" opacity="1.000000" stroke="none" 
	d="
M1.000000,391.468658 
	C2.992240,398.666016 4.742007,406.404907 7.020454,413.984894 
	C15.073537,440.776062 30.463558,462.924500 51.586910,480.850586 
	C69.653625,496.182770 90.905762,505.694153 114.005501,510.911072 
	C117.807762,511.769806 121.797806,511.796997 125.850540,512.604248 
	C84.407249,513.000000 42.814507,513.000000 1.000000,513.000000 
	C1.000000,472.646057 1.000000,432.291687 1.000000,391.468658 
z"/>
<path fill="rgba(255,255,255,0)" opacity="1.000000" stroke="none" 
	d="
M125.531342,1.000000 
	C119.805878,2.332459 113.591568,3.578162 107.421371,5.013494 
	C88.193291,9.486399 70.864754,18.127081 55.428455,30.223427 
	C36.279324,45.229259 21.160141,63.716431 12.130529,86.463684 
	C8.142377,96.510574 5.986578,107.283806 2.953313,117.714020 
	C2.810649,118.204575 2.222681,118.565628 1.421049,118.993500 
	C1.000000,79.737595 1.000000,40.475185 1.000000,1.000000 
	C42.353985,1.000000 83.708336,1.000000 125.531342,1.000000 
z"/>
<path fill="rgba(255,255,255,0)" opacity="1.000000" stroke="none" 
	d="
M205.000000,467.000000 
	C183.337753,467.000000 162.172241,467.231781 141.014160,466.934570 
	C120.037788,466.639923 101.136475,460.115234 84.497612,447.067505 
	C68.833405,434.784058 57.385265,419.426910 51.438271,400.518402 
	C48.795700,392.116333 47.221867,383.009277 47.185894,374.213959 
	C46.866280,296.064880 46.843433,217.913437 47.107712,139.763962 
	C47.175613,119.686058 53.852764,101.435539 66.114746,85.434280 
	C78.393990,69.410500 93.961845,57.613720 113.246277,51.514374 
	C121.190590,49.001713 129.748886,47.223469 138.036316,47.189980 
	C216.851929,46.871464 295.670105,46.810848 374.485718,47.130272 
	C394.707123,47.212223 413.055420,54.052986 429.128448,66.604553 
	C444.782043,78.828598 456.383545,94.065598 462.359924,113.039230 
	C464.815491,120.835083 466.770599,129.181549 466.804016,137.286423 
	C467.129730,216.268616 467.155182,295.253204 466.892303,374.235840 
	C466.825470,394.313690 460.147430,412.564331 447.885406,428.565613 
	C435.606140,444.589355 420.038300,456.386169 400.753845,462.485535 
	C392.809540,464.998199 384.254089,466.753021 375.963348,466.806763 
	C319.144196,467.174957 262.321533,467.000000 205.000000,467.000000 
M366.039001,181.561966 
	C361.497528,176.010696 357.606934,169.710724 352.271729,165.072433 
	C342.742065,156.787628 332.848511,148.698227 322.185913,141.991684 
	C305.863800,131.725433 287.485291,126.484825 268.289551,125.171013 
	C258.777313,124.519966 249.127655,125.442085 239.565842,126.053757 
	C226.381500,126.897179 213.953033,131.001831 202.110901,136.522324 
	C184.887146,144.551605 169.865952,155.527206 157.229889,170.036545 
	C144.797455,184.312057 135.783615,200.410492 130.223633,218.184174 
	C124.562752,236.280365 123.637253,255.048584 125.877045,274.025848 
	C127.405411,286.975281 130.691635,299.353149 136.094604,311.068176 
	C147.153229,335.046021 163.517242,354.461670 186.066895,368.718475 
	C204.007034,380.060883 223.399872,387.094116 244.344528,388.799408 
	C263.650116,390.371185 282.913910,388.780762 301.360657,381.925629 
	C319.467163,375.196869 335.684113,365.318298 349.523956,351.851440 
	C358.285767,343.325745 365.558594,333.590302 371.721100,322.917877 
	C382.005096,305.107910 388.034271,286.092224 388.877502,265.612701 
	C389.263855,256.229340 388.899628,246.726089 387.819672,237.399506 
	C386.957581,229.954163 385.370270,222.336456 382.546783,215.432449 
	C377.887573,204.039642 371.971161,193.160965 366.039001,181.561966 
M415.600983,146.037064 
	C417.723053,143.862030 420.035370,141.840256 421.932953,139.484406 
	C428.748474,131.022888 430.021393,113.414658 424.822449,104.426193 
	C417.618683,91.971626 403.837585,83.400833 387.591797,86.999886 
	C372.546356,90.333008 363.281128,100.170677 361.204224,113.858871 
	C358.494720,131.716003 367.784363,147.763092 385.931854,152.423370 
	C396.505310,155.138657 406.327972,153.403564 415.600983,146.037064 
z"/>
<path fill="#544B43" opacity="1.000000" stroke="none" 
	d="
M366.311829,181.813782 
	C371.971161,193.160965 377.887573,204.039642 382.546783,215.432449 
	C385.370270,222.336456 386.957581,229.954163 387.819672,237.399506 
	C388.899628,246.726089 389.263855,256.229340 388.877502,265.612701 
	C388.034271,286.092224 382.005096,305.107910 371.721100,322.917877 
	C365.558594,333.590302 358.285767,343.325745 349.523956,351.851440 
	C335.684113,365.318298 319.467163,375.196869 301.360657,381.925629 
	C282.913910,388.780762 263.650116,390.371185 244.344528,388.799408 
	C223.399872,387.094116 204.007034,380.060883 186.066895,368.718475 
	C163.517242,354.461670 147.153229,335.046021 136.094604,311.068176 
	C130.691635,299.353149 127.405411,286.975281 125.877045,274.025848 
	C123.637253,255.048584 124.562752,236.280365 130.223633,218.184174 
	C135.783615,200.410492 144.797455,184.312057 157.229889,170.036545 
	C169.865952,155.527206 184.887146,144.551605 202.110901,136.522324 
	C213.953033,131.001831 226.381500,126.897179 239.565842,126.053757 
	C249.127655,125.442085 258.777313,124.519966 268.289551,125.171013 
	C287.485291,126.484825 305.863800,131.725433 322.185913,141.991684 
	C332.848511,148.698227 342.742065,156.787628 352.271729,165.072433 
	C357.606934,169.710724 361.497528,176.010696 366.311829,181.813782 
M190.490479,310.994629 
	C196.177155,316.344086 201.384750,322.349091 207.639923,326.920685 
	C226.770248,340.902161 248.530228,345.989838 271.692902,341.775208 
	C291.714996,338.132050 308.743744,328.452637 322.170776,312.502533 
	C339.495819,291.921997 346.166809,268.370636 341.773224,242.237396 
	C338.071259,220.218109 326.680939,201.883026 308.746399,188.471207 
	C289.203217,173.856430 266.870972,167.889847 242.658722,172.139954 
	C220.442108,176.039719 201.873718,187.185852 188.465988,205.331635 
	C174.833237,223.781937 168.573318,244.591080 171.884720,267.948303 
	C174.142380,283.873047 180.120499,297.924805 190.490479,310.994629 
z"/>
<path fill="#544B43" opacity="1.000000" stroke="none" 
	d="
M415.307251,146.261810 
	C406.327972,153.403564 396.505310,155.138657 385.931854,152.423370 
	C367.784363,147.763092 358.494720,131.716003 361.204224,113.858871 
	C363.281128,100.170677 372.546356,90.333008 387.591797,86.999886 
	C403.837585,83.400833 417.618683,91.971626 424.822449,104.426193 
	C430.021393,113.414658 428.748474,131.022888 421.932953,139.484406 
	C420.035370,141.840256 417.723053,143.862030 415.307251,146.261810 
z"/>
<path fill="rgba(255,255,255,0)" opacity="1.000000" stroke="none" 
	d="
M190.235611,310.732117 
	C180.120499,297.924805 174.142380,283.873047 171.884720,267.948303 
	C168.573318,244.591080 174.833237,223.781937 188.465988,205.331635 
	C201.873718,187.185852 220.442108,176.039719 242.658722,172.139954 
	C266.870972,167.889847 289.203217,173.856430 308.746399,188.471207 
	C326.680939,201.883026 338.071259,220.218109 341.773224,242.237396 
	C346.166809,268.370636 339.495819,291.921997 322.170776,312.502533 
	C308.743744,328.452637 291.714996,338.132050 271.692902,341.775208 
	C248.530228,345.989838 226.770248,340.902161 207.639923,326.920685 
	C201.384750,322.349091 196.177155,316.344086 190.235611,310.732117 
z"/>
</svg>